<svg xmlns="http://www.w3.org/2000/svg" width="520" height="294" viewBox="0 0 520 294">
  <title>Nashville Insurance Advisors</title>
  <!-- cream background -->
  <rect width="520" height="294" fill="#F5F1E8"/>

  <!-- skyline: FinalSkyline geometry, scaled 322/600=0.5367, anchored at (99,67.6) -->
  <g transform="translate(99,67.6) scale(0.5367)" fill="#C9A84C">
    <rect x="0" y="92" width="38" height="28"/>
    <rect x="42" y="80" width="32" height="40"/>
    <rect x="50" y="74" width="6" height="6"/>
    <rect x="80" y="60" width="42" height="60"/>
    <rect x="86" y="52" width="30" height="8"/>
    <rect x="98" y="44" width="6" height="8"/>
    <rect x="130" y="48" width="20" height="72"/>
    <polygon points="140,22 136,48 144,48"/>
    <rect x="139" y="10" width="2" height="14"/>
    <rect x="178" y="38" width="22" height="82"/>
    <rect x="226" y="38" width="22" height="82"/>
    <rect x="178" y="32" width="70" height="6"/>
    <polygon points="178,32 248,32 213,8"/>
    <polygon points="176,32 180,32 178,-26"/>
    <rect x="177.4" y="-28" width="1.2" height="3"/>
    <polygon points="246,32 250,32 248,-26"/>
    <rect x="247.4" y="-28" width="1.2" height="3"/>
    <rect x="172" y="116" width="84" height="4"/>
    <rect x="270" y="56" width="36" height="64"/>
    <rect x="276" y="50" width="24" height="6"/>
    <rect x="312" y="74" width="28" height="46"/>
    <rect x="348" y="26" width="34" height="94"/>
    <rect x="363" y="10" width="4" height="16"/>
    <rect x="390" y="56" width="28" height="64"/>
    <rect x="396" y="46" width="16" height="10"/>
    <rect x="424" y="82" width="28" height="38"/>
    <rect x="458" y="50" width="32" height="70"/>
    <polygon points="458,50 474,34 490,50"/>
    <rect x="496" y="42" width="18" height="78"/>
    <rect x="520" y="72" width="26" height="48"/>
    <rect x="550" y="84" width="22" height="36"/>
    <rect x="576" y="94" width="24" height="26"/>
  </g>

  <!-- hairline rule -->
  <rect x="99" y="152.8" width="322" height="1" fill="#0F2044" fill-opacity="0.25"/>

  <!-- "Nashville" — Lora serif, navy -->
  <text
    x="260" y="174.6"
    font-family="Lora, Georgia, 'Times New Roman', serif"
    font-size="42.64" font-weight="500" letter-spacing="0.005em"
    fill="#0F2044" text-anchor="middle" dominant-baseline="hanging"
  >Nashville</text>

  <!-- "INSURANCE ADVISORS" — Inter spaced caps, gold -->
  <text
    x="260" y="227.64"
    font-family="Inter, system-ui, -apple-system, sans-serif"
    font-size="14.56" font-weight="500" letter-spacing="0.32em"
    fill="#C9A84C" text-anchor="middle" dominant-baseline="hanging"
  >INSURANCE  ADVISORS</text>
</svg>
