<svg width="800" height="800" viewBox="0 0 800 800" xmlns="http://www.w3.org/2000/svg">
  <!-- Navy background, full square (platforms will circle-crop) -->
  <rect width="800" height="800" fill="#0F2044"/>

  <!-- N mark centered, large -->
  <g transform="translate(188, 130) scale(6.6)">
    <rect x="4" y="4" width="13" height="58" rx="2.5" fill="white"/>
    <rect x="47" y="4" width="13" height="58" rx="2.5" fill="white"/>
    <polygon points="4,4 17,4 60,62 60,58 47,58 4,8" fill="white"/>
    <g transform="translate(0, -50) scale(0.555, 0.9)">
      <path d="M4,138 C4,136 8,133 30,132 C55,130 80,130 108,132 C116,133 118,136 116,138 C116,140 112,142 108,141 C80,139 55,139 30,141 C8,142 4,140 4,138Z" fill="#C9A84C"/>
    </g>
  </g>
</svg>
